<svg xmlns="http://www.w3.org/2000/svg" width="100" height="100" viewBox="0 0 100 100">
  <g id="address" transform="translate(0 -241)">
    <rect id="Rectangle_2325" data-name="Rectangle 2325" width="100" height="100" rx="50" transform="translate(0 241)" fill="#f6f6f7"/>
    <g id="_001-office" data-name="001-office" transform="translate(18 259.5)">
      <path id="Path_38423" data-name="Path 38423" d="M44,10.5a19.022,19.022,0,0,0-19,19c0,18.324,17.692,30.33,18.445,30.832a1,1,0,0,0,1.109,0C45.308,59.83,63,47.824,63,29.5a19.022,19.022,0,0,0-19-19ZM44,35a5.5,5.5,0,1,1,5.5-5.5A5.5,5.5,0,0,1,44,35Z" fill="#c6c6c6"/>
      <g id="Group_36421" data-name="Group 36421">
        <path id="Path_38424" data-name="Path 38424" d="M43.182,15.061,31,9.841V6.5a3,3,0,0,0-3-3H4a3,3,0,0,0-3,3v36a1,1,0,0,0,1,1H44a1,1,0,0,0,1-1V17.818a3,3,0,0,0-1.818-2.757ZM3,6.5a1,1,0,0,1,1-1H28a1,1,0,0,1,1,1v35H21v-8a3,3,0,0,0-3-3H14a3,3,0,0,0-3,3v8H3Zm10,35v-8a1,1,0,0,1,1-1h4a1,1,0,0,1,1,1v8Zm30,0H31V12.017L42.394,16.9a1,1,0,0,1,.606.919Z" fill="#666"/>
        <path id="Path_38425" data-name="Path 38425" d="M8,16.5h4a2,2,0,0,0,2-2v-4a2,2,0,0,0-2-2H8a2,2,0,0,0-2,2v4a2,2,0,0,0,2,2Zm0-6h4l0,4H8Z" fill="#666"/>
        <path id="Path_38426" data-name="Path 38426" d="M20,16.5h4a2,2,0,0,0,2-2v-4a2,2,0,0,0-2-2H20a2,2,0,0,0-2,2v4A2,2,0,0,0,20,16.5Zm0-6h4l0,4H20Z" fill="#666"/>
        <path id="Path_38427" data-name="Path 38427" d="M39,19.5H35a2,2,0,0,0-2,2v4a2,2,0,0,0,2,2h4a2,2,0,0,0,2-2v-4A2,2,0,0,0,39,19.5Zm-4,6v-4h4l0,4Z" fill="#666"/>
        <path id="Path_38428" data-name="Path 38428" d="M39,30.5H35a2,2,0,0,0-2,2v4a2,2,0,0,0,2,2h4a2,2,0,0,0,2-2v-4A2,2,0,0,0,39,30.5Zm-4,6v-4h4l0,4Z" fill="#666"/>
        <path id="Path_38429" data-name="Path 38429" d="M12,27.5a2,2,0,0,0,2-2v-4a2,2,0,0,0-2-2H8a2,2,0,0,0-2,2v4a2,2,0,0,0,2,2Zm-4-6h4l0,4H8Z" fill="#666"/>
        <path id="Path_38430" data-name="Path 38430" d="M20,27.5h4a2,2,0,0,0,2-2v-4a2,2,0,0,0-2-2H20a2,2,0,0,0-2,2v4A2,2,0,0,0,20,27.5Zm0-6h4l0,4H20Z" fill="#666"/>
      </g>
    </g>
  </g>
</svg>
