<svg xmlns="http://www.w3.org/2000/svg" width="88" height="30" viewBox="0 0 88 30">
  <g id="apple" transform="translate(-125 -12.5)">
    <g id="Rectangle_2208" data-name="Rectangle 2208" transform="translate(125 12.5)" fill="#fff" stroke="#f3f3f5" stroke-width="1">
      <rect width="88" height="30" rx="5" stroke="none"/>
      <rect x="0.5" y="0.5" width="87" height="29" rx="4.5" fill="none"/>
    </g>
    <path id="Path_12749" data-name="Path 12749" d="M21.746,14.22a4.121,4.121,0,0,0,.973-2.985,4.19,4.19,0,0,0-2.753,1.418,3.89,3.89,0,0,0-.989,2.893A3.461,3.461,0,0,0,21.746,14.22Zm2.708,6.95a4.24,4.24,0,0,1,2.023-3.565,4.378,4.378,0,0,0-3.419-1.849c-1.456-.144-2.844.858-3.581.858s-1.876-.835-3.086-.81a4.574,4.574,0,0,0-3.868,2.343c-1.645,2.868-.418,7.1,1.189,9.423.786,1.136,1.721,2.412,2.953,2.366,1.186-.046,1.631-.767,3.063-.767s1.834.765,3.083.744c1.274-.027,2.083-1.159,2.864-2.3a10.183,10.183,0,0,0,1.289-2.656,4.148,4.148,0,0,1-2.51-3.786Zm15.171-6.951A4.763,4.763,0,0,0,37.8,13.16a8.268,8.268,0,0,0-2.594-.365,16.966,16.966,0,0,0-1.907.1q-.792.088-1.578.221l-.154.026V29.793h1.52V22.778a10.432,10.432,0,0,0,1.745.134,8.452,8.452,0,0,0,2.4-.326,5.354,5.354,0,0,0,1.921-1,4.846,4.846,0,0,0,1.283-1.667,5.38,5.38,0,0,0,.469-2.308,5.213,5.213,0,0,0-.336-1.93,4.416,4.416,0,0,0-.944-1.459Zm-1.4,6.36a4.99,4.99,0,0,1-3.287.986c-.385,0-.75-.017-1.085-.048a5.09,5.09,0,0,1-.763-.128V14.308c.2-.037.45-.072.742-.1a12.767,12.767,0,0,1,1.327-.059,6.324,6.324,0,0,1,1.737.225,4,4,0,0,1,1.336.654,2.831,2.831,0,0,1,.85,1.093,3.885,3.885,0,0,1,.3,1.59,3.562,3.562,0,0,1-1.158,2.871Zm11.764,7.655c-.017-.471-.024-.944-.024-1.416V22.19a8.723,8.723,0,0,0-.164-1.664,4.223,4.223,0,0,0-.63-1.549,3.525,3.525,0,0,0-1.283-1.139A4.41,4.41,0,0,0,45.8,17.4a6.668,6.668,0,0,0-1.793.239,5.693,5.693,0,0,0-1.677.8l-.123.086.514,1.2.186-.125a4.969,4.969,0,0,1,1.316-.626,4.918,4.918,0,0,1,1.458-.224,2.832,2.832,0,0,1,1.5.341,2.272,2.272,0,0,1,.821.844,3.212,3.212,0,0,1,.361,1.084,7.332,7.332,0,0,1,.085,1.046V22.2a9.64,9.64,0,0,0-5.182,1.118,3.777,3.777,0,0,0-1.848,3.341,3.679,3.679,0,0,0,.219,1.234,3.188,3.188,0,0,0,.663,1.1,3.254,3.254,0,0,0,1.128.777,3.949,3.949,0,0,0,1.58.3A4.423,4.423,0,0,0,47.4,29.41a4.593,4.593,0,0,0,.828-.649q.152-.153.289-.319h.058l.139,1.352h1.466l-.041-.217a9.329,9.329,0,0,1-.144-1.343Zm-1.544-2.371a2.626,2.626,0,0,1-.112.651,3.327,3.327,0,0,1-.409.813,3.123,3.123,0,0,1-1.592,1.2,3.719,3.719,0,0,1-1.219.186,2.413,2.413,0,0,1-.8-.137,1.933,1.933,0,0,1-.674-.4,2.007,2.007,0,0,1-.473-.685,2.565,2.565,0,0,1-.18-1.016,2.283,2.283,0,0,1,.519-1.566,3.412,3.412,0,0,1,1.355-.919,6.953,6.953,0,0,1,1.831-.418,16.681,16.681,0,0,1,1.754-.076v2.369Zm11.861-8.193-2.837,7.713c-.177.466-.342.935-.493,1.392-.074.228-.143.444-.212.649h-.054q-.106-.338-.217-.674c-.147-.452-.305-.9-.467-1.32L53,17.669H51.374l4.34,11.157a1.28,1.28,0,0,1,.131.442,1.7,1.7,0,0,1-.133.446,8.091,8.091,0,0,1-.921,1.712,10.142,10.142,0,0,1-.95,1.141,5.189,5.189,0,0,1-1.016.8,9.72,9.72,0,0,1-.961.5l-.164.074.529,1.285.168-.062c.138-.052.4-.17.788-.361a6.006,6.006,0,0,0,1.3-.923,6.732,6.732,0,0,0,1.1-1.234,15.126,15.126,0,0,0,.956-1.6c.311-.6.622-1.279.926-2.025s.63-1.587.966-2.487l3.505-8.875H60.309Z" transform="translate(132.257 4.265)"/>
  </g>
</svg>
