<svg xmlns="http://www.w3.org/2000/svg" width="100" height="100" viewBox="0 0 100 100">
  <g id="email" transform="translate(0 -241)">
    <rect id="Rectangle_2325" data-name="Rectangle 2325" width="100" height="100" rx="50" transform="translate(0 241)" fill="#f6f6f7"/>
    <g id="_004-customer-care" data-name="004-customer-care" transform="translate(20 260)">
      <path id="Path_38431" data-name="Path 38431" d="M50.333,39a6.241,6.241,0,0,0-5,2.551,1,1,0,0,1-1.669,0,6.24,6.24,0,0,0-5-2.55c-2.756,0-4.834,2.436-4.834,5.667,0,2.5,1.4,7.38,10.667,12.209,9.268-4.829,10.667-9.708,10.667-12.209C55.167,41.436,53.089,39,50.333,39Zm2.5,6.667a1,1,0,0,1-1-1c0-.969-.466-2.333-1.5-2.333a1,1,0,0,1,0-2c2.273,0,3.5,2.232,3.5,4.333a1,1,0,0,1-1,1Z" transform="translate(-1.5 -1)" fill="#c6c6c6"/>
      <path id="Path_38432" data-name="Path 38432" d="M59.5,33H50.8l-8.748-5.832A1,1,0,0,0,40.5,28v5h-11a3,3,0,0,0-3,3V60a3,3,0,0,0,3,3h30a3,3,0,0,0,3-3V36a3,3,0,0,0-3-3ZM44.952,58.892a1,1,0,0,1-.9,0C33.42,53.5,31.833,47.667,31.833,44.667c0-4.3,3-7.667,6.834-7.667A8.166,8.166,0,0,1,44.5,39.458,8.166,8.166,0,0,1,50.333,37c3.832,0,6.834,3.368,6.834,7.667,0,3-1.587,8.838-12.215,14.226Z" transform="translate(-1.5 -1)" fill="#c6c6c6"/>
      <g id="Group_36422" data-name="Group 36422">
        <path id="Path_38433" data-name="Path 38433" d="M48.5,19h-.386A21.976,21.976,0,0,0,4.886,19H4.5a3,3,0,0,0-3,3v8a3,3,0,0,0,3,3h.372c1.607,9.45,9.043,16.532,17.8,16.958A2.994,2.994,0,0,0,25.5,52h2a3,3,0,0,0,0-6h-2a3,3,0,0,0-2.8,1.959C15.006,47.549,8.459,41.335,6.9,33H8.853a18.976,18.976,0,0,0,35.294,0H48.5a3,3,0,0,0,3-3V22A3,3,0,0,0,48.5,19Zm-23,29h2a1,1,0,0,1,0,2h-2a1,1,0,0,1,0-2Zm1-45A20.081,20.081,0,0,1,46.079,19H44.147A18.976,18.976,0,0,0,8.853,19H6.921A20.081,20.081,0,0,1,26.5,3Zm8,16.5a3.5,3.5,0,1,1-7,0,1,1,0,0,0-2,0,3.5,3.5,0,1,1-7,0,1,1,0,0,0-2,0,3.5,3.5,0,0,1-6.349,2.034c-.008-.011-.021-.016-.029-.027a16.977,16.977,0,0,1,32.756,0c-.008.011-.021.016-.029.027A3.5,3.5,0,0,1,36.5,19.5a1,1,0,0,0-2,0ZM4.5,31a1,1,0,0,1-1-1V22a1,1,0,0,1,1-1H8.19a18.467,18.467,0,0,0,0,10Zm22,12A16.891,16.891,0,0,1,9.651,23.85a5.472,5.472,0,0,0,7.849-1.2,5.486,5.486,0,0,0,9,0,5.486,5.486,0,0,0,9,0,5.472,5.472,0,0,0,7.849,1.2A16.891,16.891,0,0,1,26.5,43Zm23-13a1,1,0,0,1-1,1H44.81a18.467,18.467,0,0,0,0-10H48.5a1,1,0,0,1,1,1Z" transform="translate(-1.5 -1)" fill="#666"/>
        <path id="Path_38434" data-name="Path 38434" d="M33,29.5a1,1,0,0,0-1,1,5.5,5.5,0,0,1-11,0,1,1,0,0,0-2,0,7.5,7.5,0,0,0,15,0A1,1,0,0,0,33,29.5Z" transform="translate(-1.5 -1)" fill="#666"/>
      </g>
    </g>
  </g>
</svg>
