<svg xmlns="http://www.w3.org/2000/svg" width="88" height="30" viewBox="0 0 88 30">
  <g id="mada" transform="translate(-125 -11.5)">
    <g id="Rectangle_2208" data-name="Rectangle 2208" transform="translate(125 11.5)" fill="#fff" stroke="#f3f3f5" stroke-width="1">
      <rect width="88" height="30" rx="5" stroke="none"/>
      <rect x="0.5" y="0.5" width="87" height="29" rx="4.5" fill="none"/>
    </g>
    <g id="Group_5436" data-name="Group 5436" transform="translate(102 -166.472)">
      <rect id="Rectangle_2206" data-name="Rectangle 2206" width="30.445" height="10.143" transform="translate(31 194.812)" fill="#84b740"/>
      <rect id="Rectangle_2207" data-name="Rectangle 2207" width="30.445" height="10.151" transform="translate(31 180.972)" fill="#259bd6"/>
      <path id="Path_12741" data-name="Path 12741" d="M384.313,265.9l-.136.027a4.44,4.44,0,0,1-.985.127c-.8,0-1.736-.407-1.736-2.323,0-.985.163-2.3,1.645-2.3h.009a4.455,4.455,0,0,1,1.085.208l.118.036V265.9Zm.244-9.555-.244.045v3.544l-.217-.063-.063-.018a4.989,4.989,0,0,0-1.347-.235c-2.965,0-3.589,2.242-3.589,4.122,0,2.576,1.446,4.059,3.968,4.059a8.045,8.045,0,0,0,2.649-.371,1.17,1.17,0,0,0,.994-1.284v-10.17c-.705.126-1.437.253-2.152.371" transform="translate(-292.422 -63.004)" fill="#27292d"/>
      <path id="Path_12742" data-name="Path 12742" d="M439.989,284.857l-.126.036-.452.118a4.713,4.713,0,0,1-1.094.172c-.7,0-1.112-.344-1.112-.931,0-.38.172-1.022,1.311-1.022h1.473v1.627Zm-1.04-6.391a10,10,0,0,0-3.019.524l-.759.226.253,1.717.741-.244a8.714,8.714,0,0,1,2.468-.416c.325,0,1.32,0,1.32,1.076v.47H438.57c-2.522,0-3.688.8-3.688,2.531,0,1.473,1.076,2.359,2.884,2.359a9.315,9.315,0,0,0,2.007-.271l.036-.009.036.009.226.036c.705.126,1.437.253,2.151.389v-5.641c0-1.826-1.1-2.757-3.272-2.757" transform="translate(-339.285 -81.901)" fill="#27292d"/>
      <path id="Path_12743" data-name="Path 12743" d="M330.173,284.857l-.126.036-.452.118a4.644,4.644,0,0,1-1.094.172c-.7,0-1.112-.344-1.112-.931,0-.38.172-1.022,1.3-1.022h1.473v1.627Zm-1.031-6.391a9.956,9.956,0,0,0-3.019.524l-.759.226.253,1.717.741-.244a8.714,8.714,0,0,1,2.468-.416c.326,0,1.32,0,1.32,1.076v.47h-1.383c-2.522,0-3.7.8-3.7,2.531,0,1.473,1.076,2.359,2.893,2.359a9.315,9.315,0,0,0,2.007-.271l.036-.009.036.009.217.036c.714.126,1.437.253,2.151.4v-5.641c.009-1.844-1.094-2.766-3.263-2.766" transform="translate(-247.033 -81.901)" fill="#27292d"/>
      <path id="Path_12744" data-name="Path 12744" d="M252.95,278.531a6.1,6.1,0,0,0-2.45.542l-.09.045-.081-.063a3.708,3.708,0,0,0-2.2-.533,8.987,8.987,0,0,0-2.594.389c-.768.235-1.067.606-1.067,1.3v6.445h2.4V280.7l.118-.036a3.062,3.062,0,0,1,1.058-.19.951.951,0,0,1,1.049,1.094v5.1h2.368v-5.2a1.752,1.752,0,0,0-.072-.524l-.081-.154.163-.072a2.852,2.852,0,0,1,1.175-.244.958.958,0,0,1,1.049,1.094v5.1h2.359v-5.333c0-1.889-1.012-2.8-3.11-2.8" transform="translate(-179.328 -81.948)" fill="#27292d"/>
      <path id="Path_12745" data-name="Path 12745" d="M374.737,187.589a8.2,8.2,0,0,1-1.4-.127l-.136-.027v-3.48a1.7,1.7,0,0,0-.063-.5l-.072-.145.154-.063c.036-.018.072-.027.118-.045l.027-.018.163-.054a.228.228,0,0,1,.063-.018,5.616,5.616,0,0,1,1.238-.145h.009c1.473,0,1.645,1.311,1.645,2.3-.009,1.917-.958,2.323-1.745,2.323m-.009-6.617h-.063c-1.383,0-2.8.38-3.309,1.121a2.261,2.261,0,0,0-.434,1.347h0v3.589a1.063,1.063,0,0,1-.072.452l-.081.154H366.4v-2.495h-.009c-.054-2.631-1.609-4.077-3.86-4.077h-2.2c-.09.642-.163,1.094-.253,1.736h2.188c1.148,0,1.754.976,1.754,2.477v2.513l-.154-.081a1.657,1.657,0,0,0-.515-.072h-3.779c-.072.479-.163,1.1-.262,1.727h11.616c.4-.081.859-.154,1.257-.217a6.541,6.541,0,0,0,2.432.443,4.313,4.313,0,0,0,.109-8.615" transform="translate(-275.804)" fill="#27292d"/>
      <path id="Path_12746" data-name="Path 12746" d="M257.884,190.941h.108c2.522,0,3.7-.832,3.7-2.884a2.641,2.641,0,0,0-2.884-2.649h-2.323a1,1,0,0,1-1.112-1.067c0-.452.172-1.012,1.311-1.012h5.08c.108-.66.163-1.076.262-1.736h-5.279c-2.459,0-3.7,1.03-3.7,2.748,0,1.7,1.076,2.585,2.884,2.585h2.323a1.1,1.1,0,0,1,1.112,1.13,1.135,1.135,0,0,1-1.3,1.166h-.389l-7.44-.018H248.88c-1.148,0-1.953-.651-1.953-2.16v-1.04c0-1.573.624-2.549,1.953-2.549h2.206c.1-.669.163-1.094.253-1.727h-3.01c-2.251,0-3.806,1.51-3.86,4.14h0v1.175c.054,2.631,1.609,3.887,3.86,3.887h2.2l4.032.009h3.327Z" transform="translate(-179.327 -0.523)" fill="#27292d"/>
    </g>
  </g>
</svg>
