<svg xmlns="http://www.w3.org/2000/svg" width="100" height="100" viewBox="0 0 100 100">
  <g id="phone" transform="translate(0 -241)">
    <rect id="Rectangle_2325" data-name="Rectangle 2325" width="100" height="100" rx="50" transform="translate(0 241)" fill="#f6f6f7"/>
    <g id="_002-call" data-name="002-call" transform="translate(18.999 259)">
      <path id="Path_38416" data-name="Path 38416" d="M44,25a18.944,18.944,0,0,0-9.523,2.58l-7.268-1.558a1,1,0,0,0-1.184,1.2l1.64,7.1A18.987,18.987,0,1,0,44,25ZM33,35H55a1,1,0,0,1,0,2H33a1,1,0,0,1,0-2ZM55,53H33a1,1,0,0,1,0-2H55a1,1,0,0,1,0,2Zm4-8H29a1,1,0,0,1,0-2H59a1,1,0,0,1,0,2Z" transform="translate(-1 -0.97)" fill="#c6c6c6"/>
      <g id="Group_36420" data-name="Group 36420">
        <path id="Path_38417" data-name="Path 38417" d="M23.022,27.757a1,1,0,0,0,1.213,1.213L30.508,27.4a14.014,14.014,0,1,0-5.918-5.917ZM37,3a12,12,0,1,1-5.863,22.465,1,1,0,0,0-.732-.1l-5.034,1.258,1.259-5.032a1,1,0,0,0-.1-.732A11.99,11.99,0,0,1,37,3Z" transform="translate(-1 -0.97)" fill="#666"/>
        <path id="Path_38418" data-name="Path 38418" d="M41.426,34.157l-2.388,2.387-2.313-2.313a2.92,2.92,0,0,0-4.124,0l-3.663,3.662a2.81,2.81,0,0,1-3.068.625,23.023,23.023,0,0,1-12.4-12.4,2.808,2.808,0,0,1,.625-3.067l3.663-3.662a2.913,2.913,0,0,0,0-4.123L12.34,9.854a2.986,2.986,0,0,0-4.124,0L6.184,11.885C-1.676,19.743-.46,33.743,8.893,43.094,17.816,52.015,31.91,54,40.111,45.8l2.032-2.031a2.918,2.918,0,0,0,0-4.123l-1.691-1.69,2.388-2.387A5.372,5.372,0,0,1,52,39.364v4.272A5.371,5.371,0,0,1,46.634,49H42a1,1,0,0,0,0,2h4.637A7.373,7.373,0,0,0,54,43.636V39.364a7.379,7.379,0,0,0-12.574-5.207ZM9.631,11.268a.915.915,0,0,1,1.294,0l5.418,5.417a.915.915,0,0,1,0,1.294l-1.48,1.48L8.15,12.748Zm.676,30.412C2.087,33.462.653,21.432,6.789,14.215l6.661,6.659-.768.768a4.824,4.824,0,0,0-1.048,5.273,24.969,24.969,0,0,0,13.444,13.44,4.827,4.827,0,0,0,5.275-1.048l.768-.767L37.78,45.2c-7.219,6.133-19.251,4.7-27.473-3.519Zm30.421.677-1.481,1.48-6.714-6.712,1.481-1.48a.918.918,0,0,1,1.3,0l5.418,5.417a.915.915,0,0,1,0,1.295Z" transform="translate(-1 -0.97)" fill="#666"/>
        <path id="Path_38419" data-name="Path 38419" d="M37,20a1,1,0,0,0,1-1V6a1,1,0,1,0-2,0V19a1,1,0,0,0,1,1Z" transform="translate(-1 -0.97)" fill="#666"/>
        <circle id="Ellipse_1584" data-name="Ellipse 1584" cx="1.5" cy="1.5" r="1.5" transform="translate(34.496 20.53)" fill="#666"/>
      </g>
    </g>
  </g>
</svg>
