<svg xmlns="http://www.w3.org/2000/svg" xmlns:xlink="http://www.w3.org/1999/xlink" width="88" height="30" viewBox="0 0 88 30">
  <defs>
    <clipPath id="clip-path">
      <path id="Path_12737" data-name="Path 12737" d="M0,781H38.538v3.458H0Zm0,0" transform="translate(0 -781)"/>
    </clipPath>
    <clipPath id="clip-path-2">
      <path id="Path_12739" data-name="Path 12739" d="M0,0H38.538V3.472H0ZM0,0"/>
    </clipPath>
  </defs>
  <g id="visa" transform="translate(-125 -11.5)">
    <g id="Rectangle_2208" data-name="Rectangle 2208" transform="translate(125 11.5)" fill="#fff" stroke="#f3f3f5" stroke-width="1">
      <rect width="88" height="30" rx="5" stroke="none"/>
      <rect x="0.5" y="0.5" width="87" height="29" rx="4.5" fill="none"/>
    </g>
    <g id="Group_5441" data-name="Group 5441" transform="translate(4 1)">
      <g id="surface1" transform="translate(161.775 13.5)">
        <g id="Group_5434" data-name="Group 5434" transform="translate(0 20.542)" clip-path="url(#clip-path)">
          <path id="Path_12736" data-name="Path 12736" d="M0,784.557H38.538V781.1H0Zm0,0" transform="translate(0 -781.099)" fill="#f3b500"/>
        </g>
        <g id="Group_5435" data-name="Group 5435" clip-path="url(#clip-path-2)">
          <path id="Path_12738" data-name="Path 12738" d="M0,3.459H38.538V0H0Zm0,0" transform="translate(0 -0.004)" fill="#2b2963"/>
        </g>
        <path id="Path_12740" data-name="Path 12740" d="M162.644,269.654l-2.031,9.5h-2.457l2.031-9.5Zm10.336,6.132,1.294-3.567.744,3.567Zm2.742,3.365H178l-1.985-9.5h-2.1a1.119,1.119,0,0,0-1.047.7l-3.686,8.8h2.58l.512-1.419h3.152Zm-6.414-3.1c.011-2.506-3.464-2.645-3.441-3.765.007-.34.332-.7,1.042-.8a4.638,4.638,0,0,1,2.423.425l.431-2.014a6.621,6.621,0,0,0-2.3-.42c-2.429,0-4.137,1.29-4.151,3.139-.016,1.367,1.22,2.13,2.15,2.585.958.466,1.279.764,1.275,1.18-.007.637-.765.919-1.47.93a5.132,5.132,0,0,1-2.523-.6L162.3,278.8a7.466,7.466,0,0,0,2.731.5c2.582,0,4.271-1.275,4.278-3.25m-10.175-6.4-3.981,9.5h-2.6l-1.96-7.58a1.04,1.04,0,0,0-.583-.834,10.274,10.274,0,0,0-2.423-.808l.058-.276h4.181a1.147,1.147,0,0,1,1.134.968l1.035,5.5,2.555-6.464" transform="translate(-143.708 -262.392)" fill="#2b2963"/>
      </g>
      <g id="Group_5433" data-name="Group 5433" transform="translate(129 13.5)">
        <path id="Path_12733" data-name="Path 12733" d="M17.014,172.152V170.56a.934.934,0,0,0-1.009-1.009,1.047,1.047,0,0,0-.9.451.929.929,0,0,0-.85-.451.857.857,0,0,0-.743.372V169.6h-.558v2.549h.558v-1.407c0-.451.239-.664.611-.664s.558.239.558.664v1.407h.558v-1.407a.587.587,0,0,1,.611-.664c.372,0,.558.239.558.664v1.407Zm8.257-2.549h-.9v-.77H23.81v.77h-.5v.5h.5v1.168c0,.584.239.929.876.929a1.485,1.485,0,0,0,.69-.186l-.159-.478a.873.873,0,0,1-.478.133c-.265,0-.372-.159-.372-.425v-1.142h.9v-.5ZM30,169.551a.748.748,0,0,0-.664.372V169.6h-.558v2.549h.558v-1.434c0-.425.186-.664.531-.664a1.549,1.549,0,0,1,.345.053l.159-.531a1.757,1.757,0,0,0-.372-.026Zm-7.142.265a1.822,1.822,0,0,0-1.035-.265c-.637,0-1.062.319-1.062.823,0,.425.319.664.876.743l.265.026c.292.053.451.133.451.266,0,.186-.212.319-.584.319a1.466,1.466,0,0,1-.85-.265l-.265.425a1.878,1.878,0,0,0,1.089.319c.743,0,1.168-.345,1.168-.823,0-.451-.345-.69-.876-.77l-.265-.027c-.239-.026-.425-.08-.425-.239,0-.186.186-.292.478-.292a1.913,1.913,0,0,1,.8.212l.239-.451Zm14.814-.265a.749.749,0,0,0-.664.372V169.6h-.558v2.549h.558v-1.434c0-.425.186-.664.531-.664a1.549,1.549,0,0,1,.345.053l.159-.531a1.757,1.757,0,0,0-.372-.026Zm-7.115,1.327a1.275,1.275,0,0,0,1.354,1.327,1.321,1.321,0,0,0,.9-.292l-.265-.451a1.073,1.073,0,0,1-.664.239.754.754,0,0,1-.77-.823.783.783,0,0,1,.77-.823,1.072,1.072,0,0,1,.664.239l.265-.451a1.32,1.32,0,0,0-.9-.292,1.275,1.275,0,0,0-1.354,1.327Zm5.15,0V169.6h-.558v.319a.959.959,0,0,0-.8-.372,1.329,1.329,0,0,0,0,2.655.894.894,0,0,0,.8-.372v.319H35.7Zm-2.044,0a.772.772,0,1,1,1.54,0,.772.772,0,1,1-1.54,0ZM27,169.551a1.328,1.328,0,0,0,.026,2.655,1.624,1.624,0,0,0,1.035-.345l-.266-.4a1.269,1.269,0,0,1-.743.265.717.717,0,0,1-.77-.611h1.885V170.9A1.173,1.173,0,0,0,27,169.551Zm0,.478a.621.621,0,0,1,.637.611H26.306a.672.672,0,0,1,.69-.611Zm13.832.85V168.6h-.558v1.327a.959.959,0,0,0-.8-.372,1.329,1.329,0,0,0,0,2.655.893.893,0,0,0,.8-.372v.319h.558Zm-2.044,0a.772.772,0,1,1,1.54,0,.772.772,0,1,1-1.54,0Zm-18.637,0V169.6h-.558v.319a.959.959,0,0,0-.8-.372,1.329,1.329,0,0,0,0,2.655.893.893,0,0,0,.8-.372v.319h.558Zm-2.071,0a.772.772,0,1,1,1.54,0,.772.772,0,1,1-1.54,0Z" transform="translate(-11.386 -148.206)"/>
        <rect id="Rectangle_2205" data-name="Rectangle 2205" width="8.363" height="15.027" transform="translate(11.283 2.044)" fill="#ff5f00"/>
        <path id="Path_12734" data-name="Path 12734" d="M11.814,9.558a9.583,9.583,0,0,1,3.637-7.513A9.554,9.554,0,1,0,9.558,19.115a9.5,9.5,0,0,0,5.894-2.044A9.543,9.543,0,0,1,11.814,9.558Z" transform="translate(0 0)" fill="#eb001b"/>
        <path id="Path_12735" data-name="Path 12735" d="M143.434,9.558a9.547,9.547,0,0,1-15.451,7.513,9.579,9.579,0,0,0,0-15.027,9.547,9.547,0,0,1,15.451,7.513Z" transform="translate(-112.505 0)" fill="#f79e1b"/>
      </g>
    </g>
  </g>
</svg>
